<?xml version="1.0" standalone="no"?><!DOCTYPE svg PUBLIC "-//W3C//DTD SVG 1.1//EN" "http://www.w3.org/Graphics/SVG/1.1/DTD/svg11.dtd"><svg t="1485600997198" class="icon" style="" viewBox="0 0 1024 1024" version="1.1" xmlns="http://www.w3.org/2000/svg" p-id="3838" xmlns:xlink="http://www.w3.org/1999/xlink" width="48" height="48"><defs><style type="text/css"></style></defs><path d="M511.025301 63.520709c-246.937089 0-447.146946 200.209858-447.146946 447.186855s200.209858 447.186855 447.146946 447.186855c247.018953 0 447.227788-200.209858 447.227788-447.186855S758.043231 63.520709 511.025301 63.520709zM511.025301 923.493935c-227.960899 0-412.725996-184.807053-412.725996-412.786371 0-227.980341 184.766121-412.786371 412.725996-412.786371 228.001831 0 412.806837 184.80603 412.806837 412.786371C923.832138 738.687906 739.026108 923.493935 511.025301 923.493935z" p-id="3839"></path><path d="M585.830007 521.565866c32.474622-23.940249 53.713342-62.330604 53.713342-105.682971 0-72.393797-58.873876-131.309628-131.289162-131.309628-72.41324 0-131.329071 58.915831-131.329071 131.309628 0 43.889603 21.756513 82.715887 54.906517 106.555851-77.694523 30.609135-132.958174 106.259092-132.958174 194.711634 0 10.876722 8.813736 19.690458 19.691481 19.690458 10.877745 0 19.691481-8.813736 19.691481-19.690458 0-93.734848 76.263941-169.978323 169.996742-169.978323 0.794086 0 1.589195-0.099261 2.38328-0.118704 0.396019 0.020466 0.792039 0.118704 1.190105 0.118704 93.733824 0 169.996742 76.244498 169.996742 169.978323 0 10.876722 8.813736 19.690458 19.691481 19.690458 10.838859 0 19.691481-8.813736 19.691481-19.690458C721.208301 627.78505 664.79343 551.539528 585.830007 521.565866zM508.255211 507.809561c-50.737568 0-91.946109-41.249473-91.946109-91.926666 0-50.697659 41.209564-91.947132 91.946109-91.947132 50.65775 0 91.948155 41.249473 91.948155 91.947132C600.202343 466.560088 558.912961 507.809561 508.255211 507.809561z" p-id="3840"></path></svg>