<?xml version="1.0" standalone="no"?><!DOCTYPE svg PUBLIC "-//W3C//DTD SVG 1.1//EN" "http://www.w3.org/Graphics/SVG/1.1/DTD/svg11.dtd"><svg t="1485600606879" class="icon" style="" viewBox="0 0 1024 1024" version="1.1" xmlns="http://www.w3.org/2000/svg" p-id="1442" xmlns:xlink="http://www.w3.org/1999/xlink" width="200" height="200"><defs><style type="text/css"></style></defs><path d="M448.512 121.344h-281.6c-22.016 0-40.448 17.92-40.448 40.448v281.6c0 22.016 17.92 40.448 40.448 40.448h281.6c22.016 0 40.448-17.92 40.448-40.448v-281.6c-0.512-22.016-18.432-40.448-40.448-40.448zM870.912 121.344h-281.6c-22.016 0-40.448 17.92-40.448 40.448v281.6c0 22.016 17.92 40.448 40.448 40.448h281.6c22.016 0 40.448-17.92 40.448-40.448v-281.6c-0.512-22.016-18.432-40.448-40.448-40.448zM862.72 435.2h-265.216V169.472h265.216V435.2zM448.512 543.744h-281.6c-22.016 0-40.448 17.92-40.448 40.448v281.6c0 22.016 17.92 40.448 40.448 40.448h281.6c22.016 0 40.448-17.92 40.448-40.448v-281.6c-0.512-22.528-18.432-40.448-40.448-40.448zM440.32 857.088H175.104v-265.216H440.32v265.216zM870.912 543.744h-281.6c-22.016 0-40.448 17.92-40.448 40.448v281.6c0 22.016 17.92 40.448 40.448 40.448h281.6c22.016 0 40.448-17.92 40.448-40.448v-281.6c-0.512-22.528-18.432-40.448-40.448-40.448z m-8.192 313.344h-265.216v-265.216h265.216v265.216z" fill="#666767" p-id="1443"></path></svg>