<?xml version="1.0" standalone="no"?><!DOCTYPE svg PUBLIC "-//W3C//DTD SVG 1.1//EN" "http://www.w3.org/Graphics/SVG/1.1/DTD/svg11.dtd"><svg t="1485600901124" class="icon" style="" viewBox="0 0 1024 1024" version="1.1" xmlns="http://www.w3.org/2000/svg" p-id="3182" xmlns:xlink="http://www.w3.org/1999/xlink" width="200" height="200"><defs><style type="text/css"></style></defs><path d="M490.666667 938.666667c46.933333 0 85.333333-38.4 85.333333-85.333334h-170.666667c0 46.933333 38.4 85.333333 85.333334 85.333334z m277.333333-256v-234.666667c0-130.986667-90.88-240.64-213.333333-269.653333V149.333333c0-35.413333-28.586667-64-64-64S426.666667 113.92 426.666667 149.333333v29.013334c-122.453333 29.013333-213.333333 138.666667-213.333334 269.653333V682.666667l-85.333333 85.333333v42.666667h725.333333v-42.666667l-85.333333-85.333333z m-85.333333 42.666666H298.666667v-277.333333C298.666667 341.76 384.426667 256 490.666667 256S682.666667 341.76 682.666667 448V725.333333z" p-id="3183"></path></svg>